TITLE ""
FILE "2Q_j_1584-1600.mp3" MP3
  TRACK 01 AUDIO
    TITLE "2Q_j_1584-1600_001"
    INDEX 01 00:00:00
  TRACK 02 AUDIO
    TITLE "2Q_j_1584-1600_002"
    INDEX 01 00:00:10
  TRACK 03 AUDIO
    TITLE "2Q_j_1584-1600_003"
    INDEX 01 00:01:45
  TRACK 04 AUDIO
    TITLE "2Q_j_1584-1600_004"
    INDEX 01 00:02:15
  TRACK 05 AUDIO
    TITLE "2Q_j_1584-1600_005"
    INDEX 01 00:04:39
  TRACK 06 AUDIO
    TITLE "2Q_j_1584-1600_006"
    INDEX 01 00:05:10
  TRACK 07 AUDIO
    TITLE "2Q_j_1584-1600_007"
    INDEX 01 00:07:65
  TRACK 08 AUDIO
    TITLE "2Q_j_1584-1600_008"
    INDEX 01 00:08:37
  TRACK 09 AUDIO
    TITLE "2Q_j_1584-1600_009"
    INDEX 01 00:10:13
  TRACK 10 AUDIO
    TITLE "2Q_j_1584-1600_010"
    INDEX 01 00:10:58
  TRACK 11 AUDIO
    TITLE "2Q_j_1584-1600_011"
    INDEX 01 00:14:48
  TRACK 12 AUDIO
    TITLE "2Q_j_1584-1600_012"
    INDEX 01 00:15:16
  TRACK 13 AUDIO
    TITLE "2Q_j_1584-1600_013"
    INDEX 01 00:18:61
  TRACK 14 AUDIO
    TITLE "2Q_j_1584-1600_014"
    INDEX 01 00:19:31
  TRACK 15 AUDIO
    TITLE "2Q_j_1584-1600_015"
    INDEX 01 00:20:72
  TRACK 16 AUDIO
    TITLE "2Q_j_1584-1600_016"
    INDEX 01 00:21:44
  TRACK 17 AUDIO
    TITLE "2Q_j_1584-1600_017"
    INDEX 01 00:23:62
  TRACK 18 AUDIO
    TITLE "2Q_j_1584-1600_018"
    INDEX 01 00:24:32
  TRACK 19 AUDIO
    TITLE "2Q_j_1584-1600_019"
    INDEX 01 00:29:18
  TRACK 20 AUDIO
    TITLE "2Q_j_1584-1600_020"
    INDEX 01 00:29:63
  TRACK 21 AUDIO
    TITLE "2Q_j_1584-1600_021"
    INDEX 01 00:31:23
  TRACK 22 AUDIO
    TITLE "2Q_j_1584-1600_022"
    INDEX 01 00:31:70
  TRACK 23 AUDIO
    TITLE "2Q_j_1584-1600_023"
    INDEX 01 00:33:63
  TRACK 24 AUDIO
    TITLE "2Q_j_1584-1600_024"
    INDEX 01 00:34:33
  TRACK 25 AUDIO
    TITLE "2Q_j_1584-1600_025"
    INDEX 01 00:38:30
  TRACK 26 AUDIO
    TITLE "2Q_j_1584-1600_026"
    INDEX 01 00:39:03
  TRACK 27 AUDIO
    TITLE "2Q_j_1584-1600_027"
    INDEX 01 00:40:57
  TRACK 28 AUDIO
    TITLE "2Q_j_1584-1600_028"
    INDEX 01 00:41:27
  TRACK 29 AUDIO
    TITLE "2Q_j_1584-1600_029"
    INDEX 01 00:45:29
  TRACK 30 AUDIO
    TITLE "2Q_j_1584-1600_030"
    INDEX 01 00:45:74
  TRACK 31 AUDIO
    TITLE "2Q_j_1584-1600_031"
    INDEX 01 00:51:49
  TRACK 32 AUDIO
    TITLE "2Q_j_1584-1600_032"
    INDEX 01 00:52:19
  TRACK 33 AUDIO
    TITLE "2Q_j_1584-1600_033"
    INDEX 01 00:53:69
  TRACK 34 AUDIO
    TITLE "2Q_j_1584-1600_034"
    INDEX 01 00:54:45
  TRACK 35 AUDIO
    TITLE "2Q_j_1584-1600_035"
    INDEX 01 00:56:40
  TRACK 36 AUDIO
    TITLE "2Q_j_1584-1600_036"
    INDEX 01 00:57:08
  TRACK 37 AUDIO
    TITLE "2Q_j_1584-1600_037"
    INDEX 01 01:01:18
  TRACK 38 AUDIO
    TITLE "2Q_j_1584-1600_038"
    INDEX 01 01:01:69
  TRACK 39 AUDIO
    TITLE "2Q_j_1584-1600_039"
    INDEX 01 01:03:27
  TRACK 40 AUDIO
    TITLE "2Q_j_1584-1600_040"
    INDEX 01 01:03:72
  TRACK 41 AUDIO
    TITLE "2Q_j_1584-1600_041"
    INDEX 01 01:08:37
  TRACK 42 AUDIO
    TITLE "2Q_j_1584-1600_042"
    INDEX 01 01:09:10
  TRACK 43 AUDIO
    TITLE "2Q_j_1584-1600_043"
    INDEX 01 01:13:27
  TRACK 44 AUDIO
    TITLE "2Q_j_1584-1600_044"
    INDEX 01 01:13:74
  TRACK 45 AUDIO
    TITLE "2Q_j_1584-1600_045"
    INDEX 01 01:15:16
  TRACK 46 AUDIO
    TITLE "2Q_j_1584-1600_046"
    INDEX 01 01:15:63
  TRACK 47 AUDIO
    TITLE "2Q_j_1584-1600_047"
    INDEX 01 01:20:13
  TRACK 48 AUDIO
    TITLE "2Q_j_1584-1600_048"
    INDEX 01 01:20:58
  TRACK 49 AUDIO
    TITLE "2Q_j_1584-1600_049"
    INDEX 01 01:24:31
  TRACK 50 AUDIO
    TITLE "2Q_j_1584-1600_050"
    INDEX 01 01:25:01
  TRACK 51 AUDIO
    TITLE "2Q_j_1584-1600_051"
    INDEX 01 01:26:24
  TRACK 52 AUDIO
    TITLE "2Q_j_1584-1600_052"
    INDEX 01 01:26:71
  TRACK 53 AUDIO
    TITLE "2Q_j_1584-1600_053"
    INDEX 01 01:30:47
  TRACK 54 AUDIO
    TITLE "2Q_j_1584-1600_054"
    INDEX 01 01:31:21
  TRACK 55 AUDIO
    TITLE "2Q_j_1584-1600_055"
    INDEX 01 01:34:72
  TRACK 56 AUDIO
    TITLE "2Q_j_1584-1600_056"
    INDEX 01 01:35:46
  TRACK 57 AUDIO
    TITLE "2Q_j_1584-1600_057"
    INDEX 01 01:36:71
  TRACK 58 AUDIO
    TITLE "2Q_j_1584-1600_058"
    INDEX 01 01:37:41
  TRACK 59 AUDIO
    TITLE "2Q_j_1584-1600_059"
    INDEX 01 01:41:15
  TRACK 60 AUDIO
    TITLE "2Q_j_1584-1600_060"
    INDEX 01 01:41:60
  TRACK 61 AUDIO
    TITLE "2Q_j_1584-1600_061"
    INDEX 01 01:45:01
  TRACK 62 AUDIO
    TITLE "2Q_j_1584-1600_062"
    INDEX 01 01:45:46
  TRACK 63 AUDIO
    TITLE "2Q_j_1584-1600_063"
    INDEX 01 01:46:52
  TRACK 64 AUDIO
    TITLE "2Q_j_1584-1600_064"
    INDEX 01 01:47:30
  TRACK 65 AUDIO
    TITLE "2Q_j_1584-1600_065"
    INDEX 01 01:49:11
  TRACK 66 AUDIO
    TITLE "2Q_j_1584-1600_066"
    INDEX 01 01:49:56
  TRACK 67 AUDIO
    TITLE "2Q_j_1584-1600_067"
    INDEX 01 01:55:39
  TRACK 68 AUDIO
    TITLE "2Q_j_1584-1600_068"
    INDEX 01 01:56:11
  TRACK 69 AUDIO
    TITLE "2Q_j_1584-1600_069"
    INDEX 01 01:57:52
  TRACK 70 AUDIO
    TITLE "2Q_j_1584-1600_070"
    INDEX 01 01:58:24
  TRACK 71 AUDIO
    TITLE "2Q_j_1584-1600_071"
    INDEX 01 01:59:72
  TRACK 72 AUDIO
    TITLE "2Q_j_1584-1600_072"
    INDEX 01 02:00:42
  TRACK 73 AUDIO
    TITLE "2Q_j_1584-1600_073"
    INDEX 01 02:03:68
  TRACK 74 AUDIO
    TITLE "2Q_j_1584-1600_074"
    INDEX 01 02:04:38
  TRACK 75 AUDIO
    TITLE "2Q_j_1584-1600_075"
    INDEX 01 02:06:09
  TRACK 76 AUDIO
    TITLE "2Q_j_1584-1600_076"
    INDEX 01 02:06:56
  TRACK 77 AUDIO
    TITLE "2Q_j_1584-1600_077"
    INDEX 01 02:08:51
  TRACK 78 AUDIO
    TITLE "2Q_j_1584-1600_078"
    INDEX 01 02:09:22
  TRACK 79 AUDIO
    TITLE "2Q_j_1584-1600_079"
    INDEX 01 02:13:37
  TRACK 80 AUDIO
    TITLE "2Q_j_1584-1600_080"
    INDEX 01 02:14:09
  TRACK 81 AUDIO
    TITLE "2Q_j_1584-1600_081"
    INDEX 01 02:15:28
  TRACK 82 AUDIO
    TITLE "2Q_j_1584-1600_082"
    INDEX 01 02:15:73
  TRACK 83 AUDIO
    TITLE "2Q_j_1584-1600_083"
    INDEX 01 02:17:66
  TRACK 84 AUDIO
    TITLE "2Q_j_1584-1600_084"
    INDEX 01 02:18:36
  TRACK 85 AUDIO
    TITLE "2Q_j_1584-1600_085"
    INDEX 01 02:22:52
  TRACK 86 AUDIO
    TITLE "2Q_j_1584-1600_086"
    INDEX 01 02:23:28
  TRACK 87 AUDIO
    TITLE "2Q_j_1584-1600_087"
    INDEX 01 02:24:70
  TRACK 88 AUDIO
    TITLE "2Q_j_1584-1600_088"
    INDEX 01 02:25:44
  TRACK 89 AUDIO
    TITLE "2Q_j_1584-1600_089"
    INDEX 01 02:27:08
  TRACK 90 AUDIO
    TITLE "2Q_j_1584-1600_090"
    INDEX 01 02:27:53
  TRACK 91 AUDIO
    TITLE "2Q_j_1584-1600_091"
    INDEX 01 02:31:17
  TRACK 92 AUDIO
    TITLE "2Q_j_1584-1600_092"
    INDEX 01 02:31:62
  TRACK 93 AUDIO
    TITLE "2Q_j_1584-1600_093"
    INDEX 01 02:33:04
  TRACK 94 AUDIO
    TITLE "2Q_j_1584-1600_094"
    INDEX 01 02:33:49
  TRACK 95 AUDIO
    TITLE "2Q_j_1584-1600_095"
    INDEX 01 02:37:10
  TRACK 96 AUDIO
    TITLE "2Q_j_1584-1600_096"
    INDEX 01 02:37:55
  TRACK 97 AUDIO
    TITLE "2Q_j_1584-1600_097"
    INDEX 01 02:41:39
  TRACK 98 AUDIO
    TITLE "2Q_j_1584-1600_098"
    INDEX 01 02:42:11
  TRACK 99 AUDIO
    TITLE "2Q_j_1584-1600_099"
    INDEX 01 02:43:32
  TRACK 100 AUDIO
    TITLE "2Q_j_1584-1600_100"
    INDEX 01 02:43:75
  TRACK 101 AUDIO
    TITLE "2Q_j_1584-1600_101"
    INDEX 01 02:45:58
  TRACK 102 AUDIO
    TITLE "2Q_j_1584-1600_102"
    INDEX 01 02:46:31
  TRACK 103 AUDIO
    TITLE "2Q_j_1584-1600_103"
    INDEX 01 02:51:18
